# rounded-rect output remap mask, generated by round.py
v 0 -3550.0000 -1050.0000
v 0 -3579.4051 -1048.5554
v 0 -3608.5271 -1044.2356
v 0 -3637.0854 -1037.0821
v 0 -3664.8050 -1027.1639
v 0 -3691.4190 -1014.5764
v 0 -3716.6711 -999.4409
v 0 -3740.3180 -981.9031
v 0 -3762.1320 -962.1320
v 0 -3781.9031 -940.3180
v 0 -3799.4409 -916.6711
v 0 -3814.5764 -891.4190
v 0 -3827.1639 -864.8050
v 0 -3837.0821 -837.0854
v 0 -3844.2356 -808.5271
v 0 -3848.5554 -779.4051
v 0 -3850.0000 -750.0000
v 0 -3850.0000 750.0000
v 0 -3848.5554 779.4051
v 0 -3844.2356 808.5271
v 0 -3837.0821 837.0854
v 0 -3827.1639 864.8050
v 0 -3814.5764 891.4190
v 0 -3799.4409 916.6711
v 0 -3781.9031 940.3180
v 0 -3762.1320 962.1320
v 0 -3740.3180 981.9031
v 0 -3716.6711 999.4409
v 0 -3691.4190 1014.5764
v 0 -3664.8050 1027.1639
v 0 -3637.0854 1037.0821
v 0 -3608.5271 1044.2356
v 0 -3579.4051 1048.5554
v 0 -3550.0000 1050.0000
v 0 3550.0000 1050.0000
v 0 3579.4051 1048.5554
v 0 3608.5271 1044.2356
v 0 3637.0854 1037.0821
v 0 3664.8050 1027.1639
v 0 3691.4190 1014.5764
v 0 3716.6711 999.4409
v 0 3740.3180 981.9031
v 0 3762.1320 962.1320
v 0 3781.9031 940.3180
v 0 3799.4409 916.6711
v 0 3814.5764 891.4190
v 0 3827.1639 864.8050
v 0 3837.0821 837.0854
v 0 3844.2356 808.5271
v 0 3848.5554 779.4051
v 0 3850.0000 750.0000
v 0 3850.0000 -750.0000
v 0 3848.5554 -779.4051
v 0 3844.2356 -808.5271
v 0 3837.0821 -837.0854
v 0 3827.1639 -864.8050
v 0 3814.5764 -891.4190
v 0 3799.4409 -916.6711
v 0 3781.9031 -940.3180
v 0 3762.1320 -962.1320
v 0 3740.3180 -981.9031
v 0 3716.6711 -999.4409
v 0 3691.4190 -1014.5764
v 0 3664.8050 -1027.1639
v 0 3637.0854 -1037.0821
v 0 3608.5271 -1044.2356
v 0 3579.4051 -1048.5554
v 0 3550.0000 -1050.0000
vt 0.961039 0.000000
vt 0.964858 0.000688
vt 0.968640 0.002745
vt 0.972349 0.006151
vt 0.975949 0.010874
vt 0.979405 0.016868
vt 0.982685 0.024076
vt 0.985756 0.032427
vt 0.988589 0.041842
vt 0.991156 0.052230
vt 0.993434 0.063490
vt 0.995400 0.075515
vt 0.997034 0.088188
vt 0.998322 0.101388
vt 0.999251 0.114987
vt 0.999812 0.128855
vt 1.000000 0.142857
vt 1.000000 0.857143
vt 0.999812 0.871145
vt 0.999251 0.885013
vt 0.998322 0.898612
vt 0.997034 0.911812
vt 0.995400 0.924485
vt 0.993434 0.936510
vt 0.991156 0.947770
vt 0.988589 0.958158
vt 0.985756 0.967573
vt 0.982685 0.975924
vt 0.979405 0.983132
vt 0.975949 0.989126
vt 0.972349 0.993849
vt 0.968640 0.997255
vt 0.964858 0.999312
vt 0.961039 1.000000
vt 0.038961 1.000000
vt 0.035142 0.999312
vt 0.031360 0.997255
vt 0.027651 0.993849
vt 0.024051 0.989126
vt 0.020595 0.983132
vt 0.017315 0.975924
vt 0.014244 0.967573
vt 0.011411 0.958158
vt 0.008844 0.947770
vt 0.006566 0.936510
vt 0.004600 0.924485
vt 0.002966 0.911812
vt 0.001678 0.898612
vt 0.000749 0.885013
vt 0.000188 0.871145
vt 0.000000 0.857143
vt 0.000000 0.142857
vt 0.000188 0.128855
vt 0.000749 0.114987
vt 0.001678 0.101388
vt 0.002966 0.088188
vt 0.004600 0.075515
vt 0.006566 0.063490
vt 0.008844 0.052230
vt 0.011411 0.041842
vt 0.014244 0.032427
vt 0.017315 0.024076
vt 0.020595 0.016868
vt 0.024051 0.010874
vt 0.027651 0.006151
vt 0.031360 0.002745
vt 0.035142 0.000688
vt 0.038961 0.000000
f 1/1 2/2 3/3 4/4 5/5 6/6 7/7 8/8 9/9 10/10 11/11 12/12 13/13 14/14 15/15 16/16 17/17 18/18 19/19 20/20 21/21 22/22 23/23 24/24 25/25 26/26 27/27 28/28 29/29 30/30 31/31 32/32 33/33 34/34 35/35 36/36 37/37 38/38 39/39 40/40 41/41 42/42 43/43 44/44 45/45 46/46 47/47 48/48 49/49 50/50 51/51 52/52 53/53 54/54 55/55 56/56 57/57 58/58 59/59 60/60 61/61 62/62 63/63 64/64 65/65 66/66 67/67 68/68
